<?xml version="1.0" encoding="iso-8859-1"?>
<!-- Generator: Adobe Illustrator 19.0.0, SVG Export Plug-In . SVG Version: 6.00 Build 0)  -->
<svg version="1.1" id="Capa_1" xmlns="http://www.w3.org/2000/svg" xmlns:xlink="http://www.w3.org/1999/xlink" x="0px" y="0px"
	 viewBox="0 0 511.739 511.739" style="enable-background:new 0 0 511.739 511.739;" xml:space="preserve">
<g>
	<path style="fill:#383838;" d="M95.851,213.221c-5.891,0-10.667,4.776-10.667,10.667v64c0,5.891,4.776,10.667,10.667,10.667
		c5.891,0,10.667-4.776,10.667-10.667v-64C106.518,217.997,101.742,213.221,95.851,213.221z"/>
	<path style="fill:#383838;" d="M202.518,298.555c5.891,0,10.667-4.776,10.667-10.667v-42.667c0-17.673-14.327-32-32-32h-42.667
		c-5.891,0-10.667,4.776-10.667,10.667v64c0,5.891,4.776,10.667,10.667,10.667c5.891,0,10.667-4.776,10.667-10.667v-53.333h32
		c5.891,0,10.667,4.776,10.667,10.667v42.667C191.851,293.779,196.627,298.555,202.518,298.555z"/>
	<path style="fill:#383838;" d="M245.184,170.555c-5.891,0-10.667,4.776-10.667,10.667v85.333c0,17.673,14.327,32,32,32
		c5.891,0,10.667-4.776,10.667-10.667c0-5.891-4.776-10.667-10.667-10.667s-10.667-4.776-10.667-10.667v-32h10.667
		c5.891,0,10.667-4.776,10.667-10.667s-4.776-10.667-10.667-10.667h-10.667v-32C255.851,175.33,251.075,170.555,245.184,170.555z"/>
	<path style="fill:#383838;" d="M362.518,255.888c0-23.564-19.103-42.667-42.667-42.667s-42.667,19.103-42.667,42.667
		s19.103,42.667,42.667,42.667h32c5.891,0,10.667-4.776,10.667-10.667c0-5.891-4.776-10.667-10.667-10.667h-32
		c-7.621,0-14.664-4.066-18.475-10.667h50.475C357.742,266.555,362.518,261.779,362.518,255.888z M301.376,245.221
		c5.892-10.203,18.939-13.699,29.142-7.807c3.242,1.872,5.935,4.565,7.807,7.807H301.376z"/>
	<path style="fill:#383838;" d="M394.518,170.555L394.518,170.555c-5.891,0-10.667,4.776-10.667,10.667
		c-0.448,110.677-0.448,110.677,3.115,114.219l7.552-7.552l10.667-0.939c-0.256-4.565,0-65.707,0-105.685
		c0.024-5.891-4.733-10.686-10.624-10.709C394.546,170.555,394.532,170.555,394.518,170.555z"/>
	<path style="fill:#383838;" d="M506.966,175.077c-27.115-82.752-161.835-113.856-300.181-69.291
		c-29.536,9.437-57.95,22.077-84.736,37.696c-5.084,2.981-6.789,9.519-3.808,14.603c2.981,5.084,9.519,6.789,14.603,3.808
		c25.402-14.819,52.341-26.829,80.341-35.819c127.317-40.853,250.027-15.957,273.536,55.659
		c13.547,41.301-12.075,64.448-55.915,97.643c-4.713,3.535-5.668,10.221-2.133,14.933s10.22,5.668,14.933,2.133
		C482.39,267.045,526.272,233.829,506.966,175.077z"/>
	<path style="fill:#383838;" d="M399.872,342.672c-31.783,18.663-65.852,33.126-101.355,43.029
		C171.35,426.555,48.64,401.659,25.088,330.043c-11.584-35.328,3.989-78.421,42.667-118.208c4.124-4.224,4.043-10.991-0.181-15.115
		c-4.224-4.124-10.991-4.043-15.115,0.181C8.064,242.619-9.344,293.563,4.822,336.699c18.752,57.109,88.768,89.6,175.915,89.6
		c42.265-0.308,84.227-7.159,124.395-20.309c36.932-10.353,72.379-25.41,105.472-44.8c5.298-2.577,7.503-8.96,4.926-14.258
		s-8.96-7.503-14.258-4.926c-0.463,0.225-0.909,0.484-1.335,0.773L399.872,342.672z"/>
	<path style="fill:#383838;" d="M448.32,181.221c0-5.891-4.776-10.667-10.667-10.667h-0.213c-5.891,0-10.667,4.776-10.667,10.667
		c0,5.891,4.776,10.667,10.667,10.667c5.891,0,10.667-4.776,10.667-10.667H448.32z"/>
	<circle style="fill:#383838;" cx="95.915" cy="181.221" r="10.667"/>
</g>
<path d="M95.851,298.555c-5.891,0-10.667-4.776-10.667-10.667v-64c0-5.891,4.776-10.667,10.667-10.667
	c5.891,0,10.667,4.776,10.667,10.667v64C106.518,293.779,101.742,298.555,95.851,298.555z"/>
<path d="M202.518,298.555c-5.891,0-10.667-4.776-10.667-10.667v-42.667c0-5.891-4.776-10.667-10.667-10.667h-32v53.333
	c0,5.891-4.776,10.667-10.667,10.667c-5.891,0-10.667-4.776-10.667-10.667v-64c0-5.891,4.776-10.667,10.667-10.667h42.667
	c17.673,0,32,14.327,32,32v42.667C213.184,293.779,208.409,298.555,202.518,298.555z"/>
<path d="M266.518,298.555c-17.673,0-32-14.327-32-32v-85.333c0-5.891,4.776-10.667,10.667-10.667
	c5.891,0,10.667,4.776,10.667,10.667v85.333c0,5.891,4.776,10.667,10.667,10.667s10.667,4.776,10.667,10.667
	C277.184,293.779,272.409,298.555,266.518,298.555z"/>
<path d="M266.518,234.555h-21.333c-5.891,0-10.667-4.776-10.667-10.667s4.776-10.667,10.667-10.667h21.333
	c5.891,0,10.667,4.776,10.667,10.667S272.409,234.555,266.518,234.555z"/>
<path d="M351.851,298.555h-32c-23.564,0-42.667-19.103-42.667-42.667s19.103-42.667,42.667-42.667s42.667,19.103,42.667,42.667
	c0,5.891-4.776,10.667-10.667,10.667H301.44c3.799,6.581,10.812,10.644,18.411,10.667h32c5.891,0,10.667,4.776,10.667,10.667
	C362.518,293.779,357.742,298.555,351.851,298.555z M301.376,245.221h36.949c-5.892-10.203-18.939-13.699-29.142-7.807
	C305.941,239.286,303.248,241.979,301.376,245.221z"/>
<path d="M387.008,295.419c-3.563-3.563-3.563-3.563-3.115-114.219c0.289-5.767,4.899-10.378,10.667-10.667
	c5.891,0,10.667,4.776,10.667,10.667c-0.171,40-0.32,101.12,0,105.685l-10.667,0.939L387.008,295.419z"/>
<path d="M437.184,298.555c-5.891,0-10.667-4.776-10.667-10.667c0-3.357,1.581-6.519,4.267-8.533
	c43.84-33.216,69.461-56.363,55.915-97.664c-23.488-71.573-146.197-96.469-273.515-55.595
	c-28.029,8.986-54.997,20.996-80.427,35.819c-4.87,3.314-11.505,2.053-14.819-2.818c-3.314-4.87-2.053-11.505,2.818-14.819
	c0.426-0.29,0.872-0.548,1.335-0.774c26.775-15.622,55.174-28.276,84.693-37.739c138.411-44.501,273.067-13.44,300.288,69.312
	c19.2,58.731-24.576,91.989-63.296,121.301C441.883,297.819,439.563,298.585,437.184,298.555z"/>
<path d="M180.736,426.299c-87.147,0-157.163-32.491-175.915-89.6c-14.165-43.136,3.221-94.08,47.68-139.733
	c4.124-4.224,10.891-4.305,15.115-0.181s4.305,10.891,0.181,15.115c-38.741,39.787-54.315,82.859-42.667,118.208
	c23.509,71.552,146.219,96.448,273.387,55.595c35.473-9.91,69.513-24.373,101.269-43.029c4.87-3.314,11.505-2.053,14.819,2.818
	s2.053,11.505-2.818,14.819c-0.426,0.29-0.872,0.548-1.335,0.773c-33.093,19.391-68.54,34.447-105.472,44.8
	C264.867,419.054,222.956,425.941,180.736,426.299z"/>
<path d="M437.654,191.888c-5.891,0-10.667-4.776-10.667-10.667c0-5.891,4.776-10.667,10.667-10.667h0.213
	c5.891,0,10.667,4.776,10.667,10.667c0,5.891-4.776,10.667-10.667,10.667H437.654z"/>
<circle cx="95.915" cy="181.221" r="10.667"/>
<g>
</g>
<g>
</g>
<g>
</g>
<g>
</g>
<g>
</g>
<g>
</g>
<g>
</g>
<g>
</g>
<g>
</g>
<g>
</g>
<g>
</g>
<g>
</g>
<g>
</g>
<g>
</g>
<g>
</g>
</svg>
