<?xml version="1.0" encoding="iso-8859-1"?>
<!-- Generator: Adobe Illustrator 18.0.0, SVG Export Plug-In . SVG Version: 6.00 Build 0)  -->
<!DOCTYPE svg PUBLIC "-//W3C//DTD SVG 1.1//EN" "http://www.w3.org/Graphics/SVG/1.1/DTD/svg11.dtd">
<svg version="1.1" id="Capa_1" xmlns="http://www.w3.org/2000/svg" xmlns:xlink="http://www.w3.org/1999/xlink" x="0px" y="0px"
	 viewBox="0 0 215.145 215.145" style="enable-background:new 0 0 215.145 215.145;" xml:space="preserve">
<path fill="white" d="M184.841,215.145v-23.549h5.69c1.381,0,2.5-1.119,2.5-2.5V2.5c0-1.381-1.119-2.5-2.5-2.5H24.614c-1.381,0-2.5,1.119-2.5,2.5
	v186.597c0,1.381,1.119,2.5,2.5,2.5h5.69v23.549h106.765v-23.549h19.558v23.549H184.841z M179.07,209.374h-16.672v-10.74h16.672
	V209.374z M45.747,22.698h123.652v75.985H45.747V22.698z M54.351,209.374H36.076v-10.74h18.275V209.374z M80.321,209.374H60.123
	v-10.74h20.198V209.374z M106.291,209.374H86.092v-10.74h20.198V209.374z M131.297,209.374h-19.235v-10.74h19.235V209.374z
	 M45.747,132.5v-16.582h39.115h85.872V132.5H45.747z M85.863,73.57c0.58,1.222,0.875,2.723,0.875,4.502
	c0,2.073-0.391,3.845-1.177,5.316c-0.78,1.473-1.833,2.663-3.162,3.574c-1.325,0.911-2.854,1.574-4.581,1.991
	c-1.725,0.419-3.534,0.628-5.43,0.628c-2.905,0-5.78-0.436-8.612-1.31c-2.838-0.875-5.384-2.109-7.641-3.708l3.331-6.492
	c0.324,0.328,0.919,0.757,1.771,1.279c0.854,0.529,1.862,1.06,3.025,1.587c1.167,0.524,2.456,0.972,3.876,1.334
	c1.419,0.366,2.874,0.545,4.362,0.545c4.146,0,6.221-1.326,6.221-3.98c0-0.838-0.236-1.545-0.714-2.127
	c-0.471-0.58-1.14-1.094-2.016-1.529c-0.873-0.434-1.927-0.836-3.162-1.198c-1.237-0.361-2.618-0.765-4.148-1.2
	c-1.854-0.508-3.463-1.063-4.825-1.661c-1.365-0.603-2.5-1.31-3.41-2.132c-0.906-0.817-1.591-1.759-2.046-2.833
	c-0.456-1.073-0.678-2.355-0.678-3.846c0-1.965,0.361-3.708,1.088-5.235c0.729-1.529,1.737-2.803,3.025-3.819
	c1.292-1.021,2.793-1.792,4.501-2.316c1.713-0.529,3.544-0.793,5.51-0.793c2.728,0,5.235,0.427,7.529,1.279
	c2.287,0.854,4.287,1.867,6,3.03l-3.33,6.111c-0.252-0.258-0.715-0.604-1.391-1.039c-0.67-0.438-1.493-0.866-2.456-1.285
	c-0.963-0.417-2.008-0.77-3.133-1.06c-1.127-0.293-2.274-0.44-3.437-0.44c-2.072,0-3.618,0.382-4.638,1.146
	c-1.018,0.765-1.525,1.839-1.525,3.222c0,0.796,0.191,1.461,0.574,1.985c0.376,0.529,0.934,0.994,1.663,1.391
	c0.726,0.403,1.64,0.764,2.752,1.095c1.109,0.325,2.389,0.671,3.845,1.037c1.891,0.507,3.609,1.052,5.154,1.634
	c1.546,0.581,2.854,1.31,3.93,2.184C84.457,71.311,85.281,72.355,85.863,73.57z M119.302,73.57c0.58,1.222,0.869,2.723,0.869,4.502
	c0,2.073-0.391,3.845-1.17,5.316c-0.786,1.473-1.839,2.663-3.163,3.574c-1.331,0.911-2.861,1.574-4.583,1.991
	c-1.727,0.419-3.538,0.628-5.427,0.628c-2.911,0-5.78-0.436-8.619-1.31c-2.84-0.875-5.382-2.109-7.635-3.708l3.325-6.492
	c0.33,0.328,0.918,0.757,1.771,1.279c0.854,0.529,1.862,1.06,3.03,1.587c1.162,0.524,2.451,0.972,3.87,1.334
	c1.418,0.366,2.873,0.545,4.366,0.545c4.143,0,6.216-1.326,6.216-3.98c0-0.838-0.236-1.545-0.706-2.127
	c-0.477-0.58-1.147-1.094-2.02-1.529c-0.876-0.434-1.929-0.836-3.163-1.198c-1.237-0.361-2.619-0.765-4.147-1.2
	c-1.854-0.508-3.465-1.063-4.825-1.661c-1.363-0.603-2.501-1.31-3.412-2.132c-0.907-0.817-1.589-1.759-2.045-2.833
	c-0.45-1.073-0.679-2.355-0.679-3.846c0-1.965,0.36-3.708,1.09-5.235c0.727-1.529,1.736-2.803,3.028-3.819
	c1.288-1.021,2.788-1.792,4.496-2.316c1.711-0.529,3.551-0.793,5.509-0.793c2.727,0,5.235,0.427,7.529,1.279
	c2.289,0.854,4.29,1.867,6.001,3.03l-3.33,6.111c-0.252-0.258-0.715-0.604-1.39-1.039c-0.671-0.438-1.487-0.866-2.451-1.285
	c-0.97-0.417-2.014-0.77-3.14-1.06c-1.125-0.293-2.271-0.44-3.434-0.44c-2.075,0-3.62,0.382-4.641,1.146
	c-1.016,0.765-1.523,1.839-1.523,3.222c0,0.796,0.192,1.461,0.572,1.985c0.383,0.529,0.936,0.994,1.663,1.391
	c0.729,0.403,1.647,0.764,2.752,1.095c1.11,0.325,2.392,0.671,3.846,1.037c1.891,0.507,3.611,1.052,5.156,1.634
	c1.545,0.581,2.854,1.31,3.927,2.184C117.89,71.311,118.715,72.355,119.302,73.57z M154.208,56.089
	c-1.603-1.743-3.59-3.126-5.972-4.143c-2.383-1.02-5.155-1.527-8.318-1.527h-14.075v38.728h14.075c2.907,0,5.537-0.463,7.884-1.391
	c2.341-0.93,4.354-2.241,6.023-3.926c1.672-1.693,2.956-3.729,3.848-6.111c0.89-2.382,1.338-5.046,1.338-7.993
	c0-2.651-0.402-5.151-1.204-7.498C157.009,59.884,155.805,57.838,154.208,56.089z M150.662,74.8
	c-0.507,1.565-1.243,2.919-2.207,4.065c-0.968,1.142-2.167,2.044-3.602,2.7c-1.433,0.655-3.08,0.98-4.935,0.98h-6.546V57.017h6.546
	c1.816,0,3.442,0.309,4.883,0.932c1.435,0.618,2.642,1.488,3.627,2.619c0.979,1.125,1.728,2.47,2.234,4.031
	c0.509,1.564,0.767,3.272,0.767,5.127C151.428,71.548,151.17,73.238,150.662,74.8z"/>
<g>
</g>
<g>
</g>
<g>
</g>
<g>
</g>
<g>
</g>
<g>
</g>
<g>
</g>
<g>
</g>
<g>
</g>
<g>
</g>
<g>
</g>
<g>
</g>
<g>
</g>
<g>
</g>
<g>
</g>
</svg>
