<?xml version="1.0" standalone="no"?><!DOCTYPE svg PUBLIC "-//W3C//DTD SVG 1.1//EN"
        "http://www.w3.org/Graphics/SVG/1.1/DTD/svg11.dtd">
<svg t="1596297258242" class="icon" viewBox="0 0 1024 1024" version="1.1" xmlns="http://www.w3.org/2000/svg" p-id="3790"
     xmlns:xlink="http://www.w3.org/1999/xlink" width="200" height="200">
    <defs>
        <style type="text/css"></style>
    </defs>
    <path d="M900.266667 198.4c-6.4-8.533333-17.066667-12.8-27.733334-12.8H151.466667c-21.333333 0-38.4 19.2-38.4 42.666667v567.466666c0 10.666667 4.266667 21.333333 10.666666 29.866667 6.4 8.533333 17.066667 12.8 27.733334 12.8h130.133333c10.666667 0 21.333333-4.266667 27.733333-12.8 6.4-8.533333 10.666667-19.2 10.666667-29.866667v-29.866666h21.333333v70.4h85.333334v-70.4h42.666666v70.4h85.333334v-70.4h40.533333v70.4h85.333333v-70.4H661.333333h40.533334v29.866666c0 23.466667 17.066667 42.666667 38.4 42.666667h136.533333c8.533333-2.133333 14.933333-6.4 21.333333-12.8 6.4-8.533333 10.666667-19.2 10.666667-29.866667V228.266667c2.133333-10.666667-2.133333-21.333333-8.533333-29.866667z m-68.266667 362.666667h-27.733333c-21.333333 0-38.4 19.2-38.4 42.666666s17.066667 42.666667 38.4 42.666667H832v106.666667h-53.333333v-40.533334c0-23.466667-6.4-29.866667-27.733334-29.866666H273.066667c-21.333333 0-27.733333 6.4-27.733334 29.866666v40.533334H192v-106.666667h27.733333c21.333333 0 38.4-19.2 38.4-42.666667s-17.066667-42.666667-38.4-42.666666H192V270.933333h640v290.133334z"
          fill="white" p-id="3791"></path>
    <path d="M234.666667 313.6h85.333333v187.733333h-85.333333zM390.4 313.6h85.333333v187.733333h-85.333333zM546.133333 313.6h85.333334v187.733333h-85.333334zM704 313.6h85.333333v187.733333h-85.333333z"
          fill="white" p-id="3792"></path>
</svg>