<?xml version="1.0" standalone="no"?><!DOCTYPE svg PUBLIC "-//W3C//DTD SVG 1.1//EN" "http://www.w3.org/Graphics/SVG/1.1/DTD/svg11.dtd"><svg t="1596297261825" class="icon" viewBox="0 0 1024 1024" version="1.1" xmlns="http://www.w3.org/2000/svg" p-id="3917" xmlns:xlink="http://www.w3.org/1999/xlink" width="200" height="200"><defs><style type="text/css"></style></defs><path d="M1024 248.832C1024 210.432 985.088 179.2 937.216 179.2H86.784C38.912 179.2 0 210.432 0 248.832v537.6c0 38.144 38.912 69.12 86.784 69.12h149.504v-98.048a25.6 25.6 0 0 1 25.6-26.88h34.048a25.6 25.6 0 0 1 26.88 25.6v99.072h614.4c47.872 0 86.784-30.976 86.784-69.12z m-64 537.6a31.744 31.744 0 0 1-22.528 7.424h-71.424v-126.208h-64V793.6h-95.232v-125.952h-64V793.6h-95.488v-125.952h-64V793.6h-95.232v-36.352A90.88 90.88 0 0 0 297.216 665.6h-34.048a90.88 90.88 0 0 0-90.88 90.88V793.6H86.784a32 32 0 0 1-22.784-7.424V250.88a33.28 33.28 0 0 1 22.784-7.424h850.432a33.28 33.28 0 0 1 22.784 7.424z" p-id="3918"></path><path d="M798.976 346.368H225.024a67.584 67.584 0 0 0-67.584 67.328v82.432A67.584 67.584 0 0 0 225.024 563.2h573.952a67.584 67.584 0 0 0 67.584-67.584v-81.92a67.584 67.584 0 0 0-67.584-67.328z m3.584 149.76a3.584 3.584 0 0 1-3.584 3.584H225.024a3.584 3.584 0 0 1-3.584-3.584v-82.432a3.328 3.328 0 0 1 3.584-4.096h573.952a3.328 3.328 0 0 1 3.584 3.328z" p-id="3919"></path></svg>