<?xml version="1.0" standalone="no"?><!DOCTYPE svg PUBLIC "-//W3C//DTD SVG 1.1//EN" "http://www.w3.org/Graphics/SVG/1.1/DTD/svg11.dtd"><svg t="1596297270140" class="icon" viewBox="0 0 1152 1024" version="1.1" xmlns="http://www.w3.org/2000/svg" p-id="4170" xmlns:xlink="http://www.w3.org/1999/xlink" width="225" height="200"><defs><style type="text/css"></style></defs><path d="M1152.0079 191.991365v-127.922607a60.464752 60.464752 0 0 0-63.961304-63.961303H64.06877A60.464752 60.464752 0 0 0 0.107466 64.068758v127.922607h63.961304V255.952669H0.107466v703.915464a60.464752 60.464752 0 0 0 63.961304 63.961304H255.95268v-127.922607h63.961303v127.922607h768.089973a60.464752 60.464752 0 0 0 63.961303-63.961304V255.952669h-63.961303V191.991365zM512.053739 959.996056h-63.961304v-127.922607h63.961304v127.922607z m127.922607 0h-63.961304v-127.922607h63.961304z m127.922606 0h-63.961303v-127.922607h63.961303z m127.922607 0h-63.961303v-127.922607h63.961303z m0-255.845214H255.95268a60.464752 60.464752 0 0 1-63.961303-63.961303v-383.767821a60.464752 60.464752 0 0 1 63.961303-63.961303h640.039443a60.464752 60.464752 0 0 1 63.961303 63.961303v383.767821a60.464752 60.464752 0 0 1-63.961303 63.83338z m127.922607 255.845214h-63.961303v-127.922607h63.961303z" p-id="4171"></path></svg>