<?xml version="1.0" standalone="no"?><!DOCTYPE svg PUBLIC "-//W3C//DTD SVG 1.1//EN" "http://www.w3.org/Graphics/SVG/1.1/DTD/svg11.dtd"><svg t="1596297238611" class="icon" viewBox="0 0 1024 1024" version="1.1" xmlns="http://www.w3.org/2000/svg" p-id="2883" xmlns:xlink="http://www.w3.org/1999/xlink" width="200" height="200"><defs><style type="text/css"></style></defs><path d="M779.8 788l-28.2-28.2c63.7-63.7 98.8-148.4 98.8-238.5s-35.1-174.8-98.8-238.5C687.9 219.1 603.2 184 513.2 184c-90.1 0-174.7 35.1-238.4 98.8-131.5 131.5-131.5 345.4 0 476.9L246.5 788c-147-147-147-386.3 0-533.3 71.2-71.2 165.9-110.5 266.7-110.5 100.7 0 195.4 39.2 266.6 110.4s110.5 165.9 110.5 266.7c0 100.7-39.2 195.4-110.5 266.7z" p-id="2884"></path><path d="M513.2 593.1c-39.6 0-71.8-32.2-71.8-71.8 0-39.6 32.2-71.8 71.8-71.8 39.6 0 71.8 32.2 71.8 71.8 0 39.6-32.2 71.8-71.8 71.8z m0-103.7c-17.6 0-31.9 14.3-31.9 31.9 0 17.6 14.3 31.9 31.9 31.9 17.6 0 31.9-14.3 31.9-31.9 0-17.6-14.3-31.9-31.9-31.9zM513.2 286.6c-11 0-20-8.9-20-20V164.1c0-11 8.9-20 20-20 11 0 20 8.9 20 20v102.5c-0.1 11-9 20-20 20zM333.1 361.2c-5.1 0-10.2-1.9-14.1-5.8l-72.5-72.5c-7.8-7.8-7.8-20.4 0-28.2 7.8-7.8 20.4-7.8 28.2 0l72.5 72.5c7.8 7.8 7.8 20.4 0 28.2-3.9 3.8-9 5.8-14.1 5.8zM258.5 541.3H156c-11 0-20-8.9-20-20 0-11 8.9-20 20-20h102.5c11 0 20 8.9 20 20-0.1 11-9 20-20 20zM260.6 793.8c-5.1 0-10.2-1.9-14.1-5.8-7.8-7.8-7.8-20.4 0-28.2l72.5-72.5c7.8-7.8 20.4-7.8 28.2 0 7.8 7.8 7.8 20.4 0 28.2L274.7 788c-3.9 3.9-9 5.8-14.1 5.8zM765.7 793.8c-5.1 0-10.2-1.9-14.1-5.8l-72.5-72.5c-7.8-7.8-7.8-20.4 0-28.2 7.8-7.8 20.4-7.8 28.2 0l72.5 72.5c7.8 7.8 7.8 20.4 0 28.2-3.9 3.9-9 5.8-14.1 5.8zM870.3 541.3H767.8c-11 0-20-8.9-19.9-20 0-11 8.9-19.9 20-19.9h102.5c11 0 20 8.9 19.9 20 0 10.9-8.9 19.9-20 19.9zM693.3 361.2c-5.1 0-10.2-1.9-14.1-5.8-7.8-7.8-7.8-20.4 0-28.2l72.5-72.5c7.8-7.8 20.4-7.8 28.2 0 7.8 7.8 7.8 20.4 0 28.2l-72.5 72.5c-3.9 3.8-9 5.8-14.1 5.8z" p-id="2885"></path><path d="M549.8 504.6c-5.1 0-10.2-1.9-14.1-5.8-7.8-7.8-7.8-20.4 0-28.2l89-89c7.8-7.8 20.4-7.8 28.2 0 7.8 7.8 7.8 20.4 0 28.2l-89 89c-3.8 3.8-8.9 5.8-14.1 5.8z" p-id="2886"></path></svg>