<?xml version="1.0" standalone="no"?><!DOCTYPE svg PUBLIC "-//W3C//DTD SVG 1.1//EN" "http://www.w3.org/Graphics/SVG/1.1/DTD/svg11.dtd"><svg t="1596297244313" class="icon" viewBox="0 0 1024 1024" version="1.1" xmlns="http://www.w3.org/2000/svg" p-id="3011" xmlns:xlink="http://www.w3.org/1999/xlink" width="200" height="200"><defs><style type="text/css"></style></defs><path d="M509.952 4.096C229.888 4.096 3.072 230.912 3.072 510.976s226.816 506.88 506.88 506.88 506.88-226.816 506.88-506.88-226.816-506.88-506.88-506.88z m0 966.656c-253.952 0-460.288-205.824-460.288-460.288S256 50.688 509.952 50.688s460.288 205.824 460.288 460.288c0 253.952-206.336 459.776-460.288 459.776z m275.456-427.52h-82.944l-83.968-83.968-0.512-0.512s0-0.512-0.512-0.512l-0.512-0.512s-0.512 0-0.512-0.512c0 0-0.512 0-0.512-0.512 0 0-0.512 0-0.512-0.512h-0.512c-0.512 0-0.512 0-0.512-0.512h-0.512c-0.512 0-0.512 0-1.024-0.512H611.328l-4.608-1.536h-1.024H604.16 602.624h-0.512-0.512-0.512-0.512c-0.512 0-0.512 0-0.512 0.512 0 0-0.512 0-0.512 0.512 0 0-0.512 0-0.512 0.512 0 0-0.512 0-0.512 0.512l-0.512 0.512-0.512 0.512s-0.512 0-0.512 0.512l-0.512 0.512-0.512 0.512-0.512 0.512-0.512 0.512s0 0.512-0.512 0.512c0 0 0 0.512-0.512 0.512 0 0 0 0.512-0.512 0.512v0.512c0 0.512 0 0.512-0.512 0.512V463.36L531.968 727.04 445.44 243.2v-0.512-1.024-0.512-0.512s0-0.512-0.512-0.512v-0.512s0-0.512-0.512-0.512c0 0 0-0.512-0.512-0.512s-0.512-0.512-0.512-0.512 0-0.512-0.512-0.512l-0.512-0.512-0.512-0.512-0.512-0.512-0.512-0.512s-0.512 0-0.512-0.512l-0.512-0.512s-0.512 0-0.512-0.512l-0.512-0.512s-0.512 0-0.512-0.512c0 0-0.512 0-0.512-0.512 0 0-0.512 0-0.512-0.512h-0.512c-0.512 0-0.512 0-1.024-0.512H432.64h-0.512-1.024H428.032h-0.512c-0.512 0-0.512 0-0.512 0.512 0 0-0.512 0-0.512 0.512h-0.512c-0.512 0-0.512 0.512-0.512 0.512s-0.512 0-0.512 0.512l-0.512 0.512-0.512 0.512 1.024 1.024-0.512 0.512-0.512 0.512-0.512 0.512-0.512 0.512-0.512 0.512s0 0.512-0.512 0.512l-0.512 0.512s0 0.512-0.512 0.512c0 0 0 0.512-0.512 0.512 0 0.512 0 0.512-0.512 0.512v0.512c0 0.512 0 0.512-0.512 1.024v0.512L335.36 532.48H230.912c-7.168 0-13.312 11.264-13.312 17.92 0 7.168 7.168 17.92 13.824 17.92H353.28c0.512 0 0.512 0 1.024 0.512 1.024 0.512 2.048 0.512 3.072 0.512 5.632 0 10.752-4.096 12.288-9.728l57.344-204.8s79.872 455.168 79.872 455.68c0.512 4.096 9.216 12.288 19.456 11.776 13.312 0.512 22.528-7.68 22.528-11.776l70.144-294.4 66.56 61.952 0.512 0.512 0.512 0.512 0.512 0.512 0.512 0.512 0.512 0.512s0.512 0 0.512 0.512c0 0 0.512 0 0.512 0.512 0 0 0.512 0 0.512 0.512h101.888c7.168 0 15.872-4.608 15.872-19.456 0-12.288-11.776-17.408-18.944-17.408l-3.072-2.048zM634.88 280.064l-69.12 90.624 69.12-2.56-100.352 112.128 49.664-87.552-71.168-2.048 66.56-87.552 55.296-23.04z" fill="" p-id="3012"></path></svg>