<?xml version="1.0" standalone="no"?><!DOCTYPE svg PUBLIC "-//W3C//DTD SVG 1.1//EN"
        "http://www.w3.org/Graphics/SVG/1.1/DTD/svg11.dtd">
<svg t="1596297228102" class="icon" viewBox="0 0 1024 1024" version="1.1" xmlns="http://www.w3.org/2000/svg" p-id="2376"
     xmlns:xlink="http://www.w3.org/1999/xlink" width="200" height="200">
    <defs>
        <style type="text/css"></style>
    </defs>
    <path fill="white" d="M512 0C229.209302 0 0 229.209302 0 512S229.209302 1024 512 1024 1024 794.790698 1024 512 794.790698 0 512 0z m0 960.011907c-247.403163 0-448.011907-200.608744-448.011907-448.011907S264.596837 63.988093 512 63.988093 960.011907 264.596837 960.011907 512 759.403163 960.011907 512 960.011907z"
          p-id="2377"></path>
    <path fill="white" d="M598.277953 71.44186L309.581395 607.11293l184.010419-31.38679L431.437395 928.744186 714.418605 407.623442l-184.010419 31.386791L598.277953 71.44186z m-52.866976 417.196652c6.572651 16.431628-1.80986 34.863628-18.693954 41.245767-16.860279 6.38214-35.768558-1.786047-42.317395-18.241488-6.548837-16.431628 1.833674-34.863628 18.717767-41.245768 16.860279-6.38214 35.768558 1.786047 42.317396 18.241489z"
          p-id="2378"></path>
</svg>